<svg width="454" height="367" viewBox="0 0 454 367" fill="none" xmlns="http://www.w3.org/2000/svg">
<path d="M217.062 70.3686C219.431 70.5463 226.622 70.1931 229.683 70.2208C258.838 70.4846 285.255 83.8388 305.558 104.182C333.3 131.981 343.533 166.838 342.613 205.652C341.675 245.177 327.195 291.148 298.795 319.808C275.755 343.06 243.519 350.415 211.698 349.938C207.423 349.305 203.039 349.45 198.761 348.785C180.863 346.008 166.678 342.068 150.563 333.68C142.296 329.378 134.56 324.363 127.469 318.285C104.865 298.918 93.0344 276.715 87.7759 247.553C86.8394 242.36 85.8502 236.943 85.4592 231.683C82.4622 191.355 89.5109 142.961 116.705 111.416C121.199 106.203 126.341 101.176 132.009 97.2513C153.382 82.4506 190.867 72.3413 217.062 70.3686Z" fill="#8CC2CA"/>
<path d="M164.627 191.596C171.355 191.104 171.521 193.321 169.428 199.14C168.183 199.53 158.219 201.803 158.216 201.808C154.211 208.602 165.248 206.733 169.283 207.149C169.294 208.372 169.52 213.478 168.063 213.792C164.776 214.5 155.137 213.01 157.72 219.508C159.279 223.429 168.767 219.647 171.996 220.939C172.91 222.431 171.879 226.609 170.914 228.016C170.405 228.759 166.901 228.329 165.788 228.414C162.794 228.642 159.809 228.919 156.813 229.01C149.319 229.08 148.304 230.689 148.544 222.556C146.765 222.365 145.031 222.175 143.27 222.074C138.493 221.531 140.198 227.419 137.936 229.208C135.127 231.429 131.475 230.043 129.374 227.684C130.365 225.122 131.979 222.339 133.231 219.862C137.502 211.404 139.374 202.189 142.608 193.387C142.94 192.914 143.306 192.666 143.844 192.677C150.954 192.825 157.561 192.489 164.627 191.596Z" fill="#004F27"/>
<path d="M147.179 201.393C148.137 201.477 148.053 201.318 148.685 201.811C149.767 203.946 149.513 210.036 149.455 212.605C148.343 213.321 147.072 213.912 145.881 214.501C144.987 214.288 144.345 213.14 143.779 212.362C144.367 210.263 146.442 202.657 147.179 201.393Z" fill="#8CC2CA"/>
<path d="M199.118 191.342C201.51 191.083 202.133 191.231 204.453 191.964C204.668 195.168 204.259 199.252 204.29 202.567C204.327 208.832 204.487 215.098 204.832 221.353C204.914 222.833 205.473 226.401 204.848 227.632C203.666 228.033 193.824 229.018 192.297 228.266C191.793 228.066 191.212 227.414 191.148 226.836C190.303 219.23 188.485 212.399 185.693 205.218C185.775 211.066 185.583 222.111 185.093 227.799C182.345 228.964 180.784 229.047 177.832 228.976C177.442 228.796 177.218 228.572 176.892 228.296C175.395 224.884 177.343 203.501 176.55 198.43C175.699 192.99 172.699 191.124 181.218 191.469C183.749 191.571 186.857 191.705 189.392 192.166C191.139 192.483 190.904 195.552 191.102 196.809C192.037 203.819 194.723 210.843 197.809 217.185C197.202 209.342 195.97 199.973 196.029 192.203C196.034 191.578 198.588 191.396 199.118 191.342Z" fill="#004F27"/>
<path d="M267.143 237.612C267.903 237.529 267.93 237.555 268.655 237.857C269.255 238.593 269.283 244.704 269.253 245.933C269.128 250.848 268.84 255.265 269.185 260.208C269.568 265.643 270.59 271.235 270.49 276.645C268.388 277.298 266.14 277.633 263.968 278.018C263.443 277.305 262.843 276.343 262.343 275.585C257.665 280.188 252.968 281.05 247.355 277.028C245.366 275.17 243.875 273.173 242.842 270.64C240.876 265.888 240.951 260.535 243.051 255.838C245.083 251.173 249.699 249.256 254.55 249.373C257.755 249.45 259.22 250.105 262.038 251.385C262.023 248.392 261.633 245.353 260.985 242.432C259.953 237.767 263.793 237.927 267.143 237.612Z" fill="#004F27"/>
<path d="M255.115 255.005C258.425 255.055 260.075 256.822 261.94 259.33C262.645 264.255 260.8 268.002 256.448 270.37C251.403 271.555 249.395 263.382 249.509 259.667C251.32 256.692 251.842 256.362 255.115 255.005Z" fill="#8CC2CA"/>
<path d="M173.804 139.099C182.857 138.422 197.818 137.018 199.742 148.361C201.087 156.295 204.716 169.007 193.696 171.515C189.454 172.461 185.878 172.731 181.51 172.618C179.021 172.554 171.448 173.987 172.528 169.364C172.964 167.498 174.842 166.651 176.367 165.743C177.421 162.436 176.933 149.545 176.335 145.727C173.52 144.42 168.71 141.783 173.804 139.099Z" fill="#004F27"/>
<path d="M183.539 145.489C190.532 145.348 193.37 147.929 193.82 154.782C194.109 159.189 194.131 161.72 191.602 165.46C190.303 166.749 186.452 168.492 185.285 166.655C182.406 162.12 183.455 150.72 183.539 145.489Z" fill="#8CC2CA"/>
<path d="M165.292 240.801C166.212 240.75 166.5 240.812 167.217 241.292C168.831 243.388 167.962 251.617 168.025 254.942C175.163 248.081 181.754 252.232 186.163 259.567C190.121 266.152 188.271 275.262 181.421 279.03C176.325 281.215 172.843 280.377 168.325 277.647C167.196 280.837 166.933 281.117 163.453 281.025C160.479 281.132 159.992 278.73 160.182 276.145C160.868 266.8 160.065 257.55 160.271 248.225C160.309 246.504 159.386 244.69 159.547 242.996C160.556 241.483 163.441 241.188 165.292 240.801Z" fill="#004F27"/>
<path d="M172.451 258.548C178.083 257.788 181.193 262.648 180.464 267.923C180.142 270.255 177.42 272.243 175.486 273.4C172.619 273.87 170.195 272.308 168.102 270.573C167.335 268.058 166.682 263.195 168.085 260.823C169.046 259.198 170.762 258.96 172.451 258.548Z" fill="#8CC2CA"/>
<path d="M249.706 189.048C255.105 188.635 259.625 189.706 264.258 192.843C266.958 194.673 267.908 197.098 268.485 200.247C268.528 200.632 268.408 201.321 268.083 201.554C261.3 206.405 261.5 200.665 258.228 197.058C256.663 195.334 252.105 194.924 250.505 197.045C249.999 197.716 249.797 198.569 249.949 199.396C250.768 203.889 256.8 203.441 260.06 204.23C274.868 207.812 273.975 224.677 258.963 226.889C256.863 227.055 255.17 227.003 253.073 226.957C250.348 225.326 247.308 223.158 244.974 220.786C243.653 219.443 239.145 213.032 241.542 211.036C242.854 209.945 247.327 209.705 249.088 209.949C251.063 210.223 250.905 214.954 252.15 216.307C253.475 217.997 254.65 218.101 256.665 218.547C257.005 218.469 257.343 218.381 257.678 218.282C260.213 217.525 262.205 215.97 260.705 213.038C257.995 208.678 251.428 209.627 246.924 208.085C242.113 206.438 240.054 200.674 241.323 196.088C242.024 193.557 247.186 190.14 249.706 189.048Z" fill="#004F27"/>
<path d="M219.443 190.335C224.969 190.063 230.891 190.831 234.262 195.746C235.429 197.447 237.205 200.243 236.895 202.32C235.664 204.603 229.038 204.345 229.023 201.15C229.022 200.882 228.146 199.099 227.955 198.709C224.144 197.471 219.131 197.179 217.609 201.806C216.2 206.091 216.852 211.956 218.608 216.052C220.29 219.975 224.495 222.939 228.014 218.94C229.047 217.766 230.616 216.318 229.588 214.678C227.531 213.964 223.733 216.77 222.041 213.89C221.273 212.581 221.157 210.004 221.544 208.584C222.234 207.86 222.374 208.001 223.431 207.713C226.961 208.317 230.628 207.392 233.982 207.231C238.853 206.997 238.327 209.407 237.59 213.242C237.061 215.995 238.48 225.167 237.712 226.681C236.252 227.181 233.003 226.872 231.321 226.785C230.796 226.08 230.181 225.104 229.681 224.354C227.775 225.509 225.424 226.643 223.26 226.924C213.827 228.075 211.179 223.584 209.789 215.225C208.385 206.781 208.255 191.977 219.443 190.335Z" fill="#004F27"/>
<path d="M317.91 187.354C319.75 187.031 325.168 186.51 326.525 187.962C327.408 189.853 326.378 193.443 325.705 195.376C321.083 195.632 316.253 196.447 311.68 196.523C311.848 198.203 312 202.019 314.048 202.585C316.795 203.346 323.043 201.183 325.5 201.951C326.073 202.126 326.543 202.539 326.793 203.085C327.503 204.655 326.773 207.317 326.268 208.858C323.51 209.333 316.615 209.348 314.358 210.842C313.698 211.278 314.015 215.286 314.065 216.409C318.345 216.746 322.453 216.433 326.69 215.868C329.758 215.319 330.905 221.021 329.88 222.818C326.943 224.975 319.69 224.584 315.845 224.834C314.288 224.779 304.613 226.902 305.495 223.42C307.563 215.262 304.343 205.733 304.215 197.231C304.198 195.959 301.108 190.26 302.998 189.392C306.523 187.771 313.928 187.75 317.91 187.354Z" fill="#004F27"/>
<path d="M201.537 249.552C206.088 249.26 208.864 249.216 212.768 252.258C216.76 255.395 218.222 260.263 218.821 265.08C219.597 271.313 215.589 278.468 208.888 279.04C200.025 279.18 196.019 278.06 192.46 270.02C188.628 261.36 193.387 252.833 201.537 249.552Z" fill="#004F27"/>
<path d="M203.544 258.027C203.955 258 204.665 257.96 205.056 258.04C214.034 259.822 213.946 266.747 207.364 271.552L205.124 272.49C202.889 271.925 200.549 271.107 199.872 268.685C198.583 264.072 198.801 259.96 203.544 258.027Z" fill="#8CC2CA"/>
<path d="M281.33 187.602C283.605 187.37 293.19 188.856 296.838 189.135C297.715 190.432 298.66 192.187 298.478 193.944C298.04 198.204 287.775 194.788 288.058 199.087C288.555 206.641 290.458 214.058 289.923 221.669C289.813 223.22 289.1 223.964 287.94 224.819C286.495 225.251 283.66 225.852 282.94 223.838C281.403 219.534 281.99 214.31 281.248 209.846C280.613 206.027 280.143 201.172 278.49 197.723C277.788 196.355 273.065 196.654 271.41 196.405C263.31 187.295 275.908 188.019 281.33 187.602Z" fill="#004F27"/>
<path d="M215.484 147.56C217.82 147.419 219.791 147.64 221.864 148.787C224.937 150.514 227.202 153.385 228.166 156.775C228.651 158.437 229.153 160.326 228.291 161.898C226.271 163.815 215.282 162.853 211.276 163.122C213.087 165.458 213.324 166.01 215.98 167.231C217.301 166.927 218.629 166.649 219.962 166.397C222.785 163.515 222.661 163.606 226.349 165.258C227.435 165.966 227.153 165.605 227.694 166.617C227.839 169.246 222.168 172.019 219.889 172.571C215.332 174.127 205.565 170.198 204.842 164.856C203.454 154.604 205.553 149.435 215.484 147.56Z" fill="#004F27"/>
<path d="M217.177 154.841C218.527 154.928 220.647 155.668 221.462 156.774C221.37 158.525 217.993 158.044 216.707 157.996C215.283 157.924 213.507 158.078 212.662 156.866L212.866 156.277C214.18 155.159 215.512 155.047 217.177 154.841Z" fill="#8CC2CA"/>
<path d="M105.936 193.074C106.748 192.806 107.267 192.827 108.017 193.139C108.431 193.622 108.757 193.88 108.733 194.622C108.632 197.787 108.462 201.053 108.361 204.212C108.169 209.913 108.233 215.619 108.552 221.315C111.351 222.185 116.138 222.432 119.124 222.332C121.357 222.258 122.987 221.763 125.444 221.963C126.209 223.383 125.632 226.211 125.433 227.903C123.007 229.188 122.058 229.386 119.311 229.71L119.171 229.724C117.254 229.906 100.996 230.371 100.125 230.004C98.9604 228.173 100.858 225.095 100.564 223.192C99.3501 215.342 100.036 208.158 100.304 200.315C100.375 198.227 99.3266 195.824 99.6351 193.792C100.753 192.722 103.972 193.781 105.936 193.074Z" fill="#004F27"/>
<path d="M236.421 140.233C245.744 139.608 241.812 142.654 243.351 147.26C245.657 149.213 250.393 144.504 249.862 151.245C249.546 155.27 245.519 153.166 244.059 154.883C242.596 156.603 243.044 163.542 244.515 165.45C245.429 166.596 249.135 166.495 250.513 166.53C250.538 168.666 250.66 170.942 250.1 172.987C249.071 173.122 248.071 172.962 247.053 172.815C244.832 172.493 242.622 172.482 240.379 172.486C235.222 167.83 236.514 164.269 236.032 157.836C235.592 151.972 231.726 155.344 229.349 153.23C228.68 151.645 229.242 148.957 229.817 147.402C231.479 145.998 232.891 147.466 234.985 146.862C236.193 145.876 235.702 142.482 236.421 140.233Z" fill="#004F27"/>
<path d="M227.292 250.033C227.662 249.983 228.034 249.95 228.408 249.934C230.594 249.819 231.657 250.815 233.141 252.18C235.282 251.568 241.267 248.683 241.343 253.353C241.362 254.563 241.347 257.793 240.617 258.578C239.601 259.05 238.607 258.875 237.501 258.878C230.02 258.903 232.291 268.56 232.553 273.548C232.845 275.208 234.553 277.998 233.368 279.253C231.52 280 224.848 279.435 223.909 277.973C223.911 274.128 223.545 253.548 224.562 251.21C225.395 250.465 226.206 250.345 227.292 250.033Z" fill="#004F27"/>
<path d="M379.487 73.7875C380.602 73.681 382.295 73.8873 383.357 74.2538C396.802 78.9543 398.567 99.1548 398.86 111.324C399.467 136.709 397.73 162.261 396.807 187.627C395.865 208.162 395.252 228.71 394.967 249.264C394.83 261.648 394.962 273.965 395.09 286.343C395.122 289.903 394.672 293.643 394.752 297.18C395.037 309.308 393.78 321.433 393.735 333.528C390.2 333.31 385.965 333.413 382.375 333.415L373.405 333.465C370.727 321.718 373.242 299.558 373.24 287.03C373.24 279.008 373.142 270.238 373.435 262.233C373.717 254.508 377.607 230.354 376.055 223.962C375.295 222.932 371.375 221.918 369.695 221.182C365.185 212.69 365.767 141.75 366.337 128.62C366.847 117.032 368.04 105.484 369.91 94.0363C370.705 89.076 371.46 84.1045 373.317 79.4105C374.542 76.3165 376.325 74.7183 379.487 73.7875Z" fill="#004F27"/>
<path d="M44.1423 78.202C46.1608 78.4112 48.4723 78.2822 50.5001 78.1302L50.5183 109.653C50.5193 113.398 50.2743 123.648 51.0021 126.76L51.4708 126.952C54.0216 123.09 54.4246 95.9204 54.3841 90.2184C54.3618 87.1047 55.2426 81.2989 55.3033 78.1272C56.8051 78.4884 62.8778 79.4004 63.7088 80.4397C65.0971 82.1759 62.0296 124.796 63.3426 126.623C66.0691 125.123 66.9083 113.312 67.2346 110.25L69.3166 90.8102C69.5631 88.5197 69.8093 83.1997 70.9741 81.5087C72.4413 80.4422 74.7601 80.7177 76.6371 80.7182C77.8901 90.4894 75.0228 136.624 70.4946 143.933C68.9121 146.487 65.6173 147.056 62.9248 147.725L63.2576 216.687C63.7118 252.452 63.9456 288.217 63.9593 323.985C60.4333 323.44 53.4303 322.55 50.3111 321.592C50.1388 316.497 50.2708 310.822 50.2718 305.662L50.2783 276.292L50.2061 194.345L50.2923 166.302C50.2873 162.279 50.5041 156.897 49.8713 153.053C49.4326 149.065 44.6681 147.625 43.1376 144.934C41.0551 141.272 41.9888 132.9 42.1123 128.752L42.9153 106.078C43.1638 98.2414 43.1851 90.4042 43.6801 82.5754C43.7791 81.0072 43.7923 79.7412 44.1423 78.202Z" fill="#004F27"/>
<path d="M236.637 17.061C242.179 16.8778 249.154 20.2039 253.997 22.9701C262.967 28.3084 270.01 37.1494 274.195 46.6119C275.365 49.2554 276.757 58.7977 278.297 59.6622L278.885 59.3124C279.242 58.5467 279.647 57.8042 280.097 57.0897C291.717 38.4259 310.277 34.8859 330.91 34.2109C331.622 34.1877 333.215 35.2142 333.832 35.6027C335.255 39.8837 333.602 53.4172 333.01 58.4697C332.997 59.4234 332.697 61.2819 332.45 62.1974C327.847 77.4289 313.117 81.7277 298.887 80.6924C285.487 79.7179 286.36 75.8559 277.447 69.5307C269.68 68.9899 268.04 70.1974 260.442 65.6487C254.512 62.0979 253.457 60.3569 249.136 55.4242C242.667 48.2327 238.392 39.5459 235.1 30.5107C233.299 25.5664 228.727 18.4367 236.637 17.061Z" fill="#813429"/>
</svg>
