<svg width="38" height="59" viewBox="0 0 38 59" fill="none" xmlns="http://www.w3.org/2000/svg">
<path d="M0 0L7.67766 0C7.6247 1.45373 7.67228 3.11607 7.67217 4.58738L7.67109 13.5154L7.67217 16.8093C7.67191 17.3284 7.69478 18.198 7.64015 18.696C7.88299 18.477 8.34424 17.6884 8.5401 17.3847L9.8402 15.4013L16.4218 5.4168C16.9888 4.56576 17.5496 3.71156 18.1042 2.85427C18.3055 2.54477 18.7894 1.76261 19.0051 1.50618C20.6041 2.23885 22.2319 3.17173 23.8268 3.93646C24.3459 4.18535 25.1856 4.67106 25.6916 4.86148C24.6981 6.43807 23.5973 8.05558 22.5655 9.61687L18.6356 15.5907L16.5495 18.7643C16.3324 19.0926 15.6578 20.051 15.5105 20.339C16.5807 19.7675 17.6796 19.2284 18.7613 18.6734C23.2894 16.3502 27.884 14.1071 32.3931 11.7573C32.6791 12.265 33.1272 12.9032 33.4591 13.4043L35.2668 16.1442C35.4529 16.4278 36.0947 17.3578 36.2092 17.6136C36.0127 17.7846 35.2073 18.1678 34.936 18.3044L32.9458 19.3115L23.7173 23.9873C22.7858 24.4499 21.8572 24.9172 20.9318 25.3891C20.5346 25.5906 19.8751 25.9029 19.5279 26.1259C20.2629 26.0791 21.3001 26.1052 22.0555 26.1053L26.4591 26.106L33.7203 26.1057C34.2803 26.1053 37.809 26.0621 37.9549 26.1634C38.0281 26.3261 37.988 32.223 37.9969 32.8863C36.4623 32.9185 34.8533 32.8984 33.311 32.8977L25.0927 32.8958L20.994 32.8984C20.4677 32.899 19.2936 32.9244 18.8317 32.8619C19.4103 33.1963 20.1203 33.5326 20.7286 33.8397L24.0332 35.5084C28.0859 37.5646 32.2189 39.6075 36.2394 41.6998C34.9825 43.6248 33.6789 45.6625 32.392 47.5689C31.4866 47.0714 30.485 46.5905 29.5559 46.1226L25.0299 43.8319L19.3188 40.9376C18.2045 40.3723 17.0586 39.7726 15.9333 39.2308L22.1874 48.7108L24.0586 51.5508C24.5804 52.3505 25.1403 53.239 25.7059 54.0104C24.8326 54.4851 23.8747 54.954 22.9811 55.4069L18.9963 57.4263C18.054 55.9429 17.0405 54.4438 16.0687 52.9717L11.0872 45.4049L8.75293 41.8571C8.52706 41.5126 7.89748 40.4752 7.63904 40.2161C7.69998 40.8774 7.67135 41.8216 7.67153 42.5015L7.67146 46.4293L7.6761 59H0L0 0Z" fill="#73B7DA"/>
</svg>
