<svg width="41" height="41" viewBox="0 0 41 41" fill="none" xmlns="http://www.w3.org/2000/svg">
<g clip-path="url(#clip0_794_2952)">
<path d="M18.833 0H22.1275L22.1618 0.0119474C22.544 0.140576 23.2816 0.157805 23.7096 0.233779C24.6044 0.392649 25.4889 0.588798 26.3593 0.848948C31.7123 2.45576 36.1823 6.16918 38.7433 11.1368C39.6386 12.8848 40.2793 14.7519 40.6461 16.6813C40.7269 17.1267 40.9027 18.7068 41 18.9845V22.0469L40.9884 22.0844C40.8563 22.5214 40.795 23.4625 40.7109 23.9442C40.5736 24.729 40.4098 25.4497 40.1884 26.2156C38.6575 31.4567 35.1065 35.8746 30.3171 38.4965C29.4359 38.9819 28.5187 39.3992 27.5738 39.7446C27.2139 39.876 26.429 40.1011 26.149 40.2361C26.1861 38.6528 26.1579 36.9827 26.1576 35.3932L26.1605 25.0309C27.5888 25.0295 29.1605 24.9974 30.5806 25.0411C30.7619 23.4339 30.999 21.5141 31.2447 19.9172C30.0232 19.966 28.6672 19.879 27.4316 19.9159C27.0905 19.9262 26.4452 19.8838 26.1486 19.9142C26.1707 18.5184 26.069 16.9724 26.2654 15.6182C26.4984 14.0116 28.5104 14.1158 29.702 14.137C30.2504 14.1467 30.8031 14.1328 31.351 14.1439L31.3878 14.1447C31.3911 12.6913 31.4325 11.0204 31.3872 9.58863C30.17 9.45939 29.531 9.42223 28.3155 9.40658C26.3404 9.38115 24.7272 9.45631 23.0919 10.7402C21.77 11.7779 21.0438 13.4913 20.9128 15.1361C20.7901 16.6772 20.8845 18.3573 20.8369 19.9285L18.0255 19.9307C17.6002 19.931 16.8786 19.9525 16.4771 19.9139C16.3889 21.5665 16.5119 23.3653 16.4499 25.0172C17.9157 25.0391 19.3816 25.046 20.8475 25.0378L20.8551 35.0301C20.8547 36.9422 20.9035 39.1038 20.8416 41H18.8451C18.6839 40.9287 16.8427 40.6813 16.4711 40.6108C15.2829 40.3746 14.1184 40.0317 12.992 39.5859C7.26225 37.3225 2.84807 32.611 0.962527 26.7461C0.703835 25.9339 0.531731 25.1781 0.350862 24.3501C0.24393 23.8606 0.180913 22.5907 0 22.2079V18.791C0.0972989 18.583 0.302904 16.9083 0.393018 16.4691C0.74415 14.7027 1.3284 12.9907 2.13044 11.3781C4.6531 6.29226 9.17207 2.48038 14.6104 0.850994C15.4737 0.597203 16.3517 0.396398 17.2395 0.249706C17.6461 0.184008 18.4762 0.130863 18.833 0Z" fill="#FFFEF5"/>
</g>
<defs>
<clipPath id="clip0_794_2952">
<rect width="41" height="41" fill="white"/>
</clipPath>
</defs>
</svg>
