<svg width="41" height="41" viewBox="0 0 41 41" fill="none" xmlns="http://www.w3.org/2000/svg">
<path d="M10.4025 1.13953C11.9158 1.09808 13.5633 1.1283 15.0844 1.12842L23.5109 1.12745L28.1417 1.1274C29.3756 1.12769 30.8212 1.07281 32.0181 1.30689C33.6984 1.63655 35.2616 2.40474 36.5492 3.53352C38.6246 5.35357 39.8109 7.9055 39.8697 10.6531C39.8958 11.8728 39.8777 13.1148 39.8774 14.3353L39.8766 21.7058L39.8783 27.4764C39.8784 28.9363 39.9528 30.729 39.6683 32.1255C39.3307 33.76 38.5754 35.279 37.4759 36.5346C35.6751 38.5817 33.3364 39.6994 30.6285 39.8707C29.0052 39.9027 27.3274 39.8826 25.7009 39.8827L17.1181 39.8832L12.8506 39.8836C11.6031 39.8843 10.1821 39.9352 8.9701 39.6963C7.32173 39.3709 5.78567 38.6244 4.51135 37.5294C2.54232 35.8467 1.33361 33.4422 1.15777 30.8581C1.07832 29.6811 1.12647 28.0677 1.12694 26.8635L1.12772 19.7659L1.12735 13.5867C1.1263 12.1841 1.0566 10.3124 1.30949 8.98472C1.63006 7.31457 2.38573 5.75857 3.50017 4.47396C5.34656 2.3741 7.62979 1.31985 10.4025 1.13953ZM30.696 38.2332C32.9975 38.0266 34.9116 37.0958 36.4067 35.3024C37.2862 34.2441 37.8772 32.9765 38.1224 31.6226C38.331 30.469 38.2687 28.6525 38.2685 27.4223L38.2677 21.2014L38.2684 14.1481C38.2691 13.0287 38.3211 11.1986 38.2206 10.1262C38.0337 7.95511 36.9751 5.95232 35.2863 4.57501C34.2356 3.71216 32.9825 3.13107 31.6451 2.88652C30.473 2.67983 28.3368 2.74807 27.0656 2.74876L19.8781 2.75193L13.6 2.75114C12.5526 2.74926 11.4494 2.72871 10.4017 2.77108C10.3855 2.77352 10.3694 2.77596 10.3532 2.77841C8.01685 2.99576 6.12656 3.82594 4.59807 5.6712C3.7049 6.74529 3.10928 8.03499 2.87072 9.41141C2.6758 10.516 2.73615 12.3412 2.73611 13.5229L2.73628 19.7852L2.73618 27.0129C2.73618 28.1234 2.68014 29.948 2.78276 30.9965C3.00248 33.1181 4.0507 35.0674 5.69959 36.4205C6.75149 37.2854 8.0054 37.8697 9.34426 38.1189C10.3962 38.31 12.0131 38.2578 13.1357 38.2577L18.4291 38.2565L26.3866 38.257C27.6767 38.257 29.4314 38.3074 30.696 38.2332Z" fill="#FFFEF5"/>
<path d="M19.6292 10.6313C25.0797 10.153 29.8858 14.1841 30.3636 19.6346C30.8414 25.0852 26.81 29.891 21.3594 30.3683C15.9094 30.8457 11.1043 26.8148 10.6266 21.3648C10.1488 15.915 14.1793 11.1095 19.6292 10.6313ZM20.7202 28.7856C25.2938 28.6618 28.9018 24.8551 28.7805 20.2814C28.6593 15.7078 24.8546 12.0976 20.2809 12.2163C15.7035 12.3351 12.0899 16.1434 12.2112 20.7207C12.3326 25.298 16.143 28.9095 20.7202 28.7856Z" fill="#FFFEF5"/>
<path d="M30.4842 6.42211C32.0664 6.27008 33.473 7.42721 33.629 9.00895C33.7849 10.5907 32.6313 12.0002 31.0499 12.16C29.4631 12.3204 28.0476 11.1619 27.8911 9.57463C27.7346 7.98736 28.8966 6.5747 30.4842 6.42211ZM31.0502 10.5222C31.7298 10.362 32.1508 9.68117 31.9905 9.00167C31.8302 8.32212 31.1494 7.90115 30.4699 8.06143C29.7903 8.22175 29.3694 8.90253 29.5297 9.58203C29.69 10.2616 30.3707 10.6825 31.0502 10.5222Z" fill="#FFFEF5"/>
</svg>
