<svg width="41" height="41" viewBox="0 0 41 41" fill="none" xmlns="http://www.w3.org/2000/svg">
<path d="M21.0564 4.49514C21.7648 4.46327 26.1783 4.40329 26.5694 4.57454C27.0747 4.79576 26.9023 6.48977 26.9496 6.99771C26.9815 7.3416 27.0777 7.67825 27.2026 7.9994C27.8785 9.73846 29.4298 10.7823 31.274 10.8752C31.8189 10.9027 32.5264 10.7964 33.0256 11.0262C33.1227 11.0709 33.2012 11.1297 33.2389 11.2341C33.2928 11.3831 33.3093 11.5411 33.3183 11.6984C33.3592 12.4154 33.3078 13.1534 33.3105 13.8727C33.3138 14.7241 33.3721 15.6061 33.315 16.4547C33.303 16.6334 33.273 16.8387 33.1913 16.9999C33.1217 17.137 32.9723 17.2204 32.8301 17.2632C32.4841 17.3676 32.0674 17.3262 31.7082 17.3182C30.1142 17.2824 28.3523 17.0865 26.9186 16.3299C26.8741 18.7872 26.9355 21.2772 26.9106 23.7366C26.8932 25.4569 27.0331 27.5017 26.6381 29.1531C26.0363 31.6351 24.4745 33.7771 22.2952 35.1088C20.1191 36.4514 17.4941 36.8614 15.0122 36.2465C12.4479 35.6253 10.382 34.0211 9.01433 31.7852C8.76909 31.3702 8.55532 30.9374 8.3749 30.4904C7.43455 28.1225 7.4645 25.4795 8.45835 23.1336C9.45095 20.7804 11.3462 18.924 13.7195 17.9804C14.4562 17.6873 17.7133 16.8088 17.8617 17.6353C18.0457 18.66 17.8978 21.6651 17.9324 22.8342C17.9644 23.9124 17.0776 23.6554 16.2747 23.897C15.5034 24.1289 14.8584 24.6624 14.4858 25.3764C14.0864 26.1335 13.9819 27.0363 14.2389 27.8562C14.4942 28.6685 15.0619 29.3459 15.817 29.7393C16.5832 30.1328 17.4741 30.2065 18.2945 29.9444C19.1989 29.653 20.0291 28.8255 20.3254 27.9323C20.5682 27.2005 20.5051 25.8726 20.5043 25.06L20.5011 22.4071L20.5041 11.0205L20.5003 7.37984C20.4985 6.70358 20.4868 6.02416 20.5012 5.34834C20.5121 4.8364 20.556 4.64385 21.0564 4.49514ZM16.6514 22.4486L16.6599 18.6347C14.2571 18.8796 12.3688 19.7676 10.8146 21.6773C9.43442 23.3921 8.78795 25.583 9.01609 27.7724C9.08928 28.4711 9.24952 29.1579 9.49311 29.8168C10.3775 31.995 11.8657 33.6547 14.0592 34.5781C16.0908 35.4266 18.3748 35.4419 20.4176 34.6205C22.465 33.7757 24.0998 32.1622 24.9714 30.1261C25.2706 29.419 25.4676 28.673 25.5564 27.9104C25.6663 26.9543 25.6291 25.677 25.6292 24.6888L25.6281 18.4264C25.6277 17.4411 25.6151 16.454 25.6267 15.4701C25.6298 15.1999 25.7292 14.7128 26.0566 14.6898C26.6114 14.6509 27.2635 15.0834 27.7707 15.2963C28.0887 15.4272 28.4129 15.543 28.742 15.6431C29.7716 15.9551 30.9526 16.0219 32.0275 16.0134C32.0309 14.7685 32.0098 13.4376 32.0404 12.1982C30.2814 12.1545 28.9921 11.9761 27.6093 10.7634C26.0189 9.3687 25.606 7.81326 25.6319 5.78733C24.8191 5.77872 24.0062 5.77832 23.1933 5.78608C22.8375 5.78805 22.1176 5.81579 21.7975 5.76134C21.7219 7.45227 21.7847 9.56453 21.7847 11.2993L21.7832 21.936L21.7835 25.1744C21.7853 26.0021 21.8321 27.0814 21.6698 27.8683C21.4741 28.7754 20.9966 29.5974 20.3054 30.2167C18.4278 31.9295 15.6265 31.7493 13.9376 29.8689C13.1496 28.994 12.7489 27.8375 12.8266 26.6626C12.8898 25.46 13.4316 24.3326 14.3312 23.532C15.0374 22.9081 15.7443 22.6458 16.6514 22.4486Z" fill="#FFFEF5"/>
</svg>
